<?xml version="1.0" encoding="utf-8"?>
<!-- Generator: Adobe Illustrator 16.0.0, SVG Export Plug-In . SVG Version: 6.00 Build 0)  -->
<!DOCTYPE svg PUBLIC "-//W3C//DTD SVG 1.1//EN" "http://www.w3.org/Graphics/SVG/1.1/DTD/svg11.dtd">
<svg version="1.1" id="Layer_1" xmlns="http://www.w3.org/2000/svg" xmlns:xlink="http://www.w3.org/1999/xlink" x="0px" y="0px"
	 width="450px" height="139px" viewBox="0 0 450 139" enable-background="new 0 0 450 139" xml:space="preserve">
<g>
	<g>
		<g>
			<path fill="#586B93" d="M75.47,40.045h26.075c11.168,0,17.18,6.68,17.18,20.042c0,15.776-8.387,20.044-18.747,20.044H75.47
				V40.045z M87.493,71.145h10.056c6.873,0,8.734-5.616,8.734-11.114c0-7.464-3.273-11.008-9.697-11.008h-9.093V71.145z"/>
			<path fill="#586B93" d="M122.057,40.045h36.13v8.644h-24.112v7.245h22.587v8.309h-22.587v7.245h24.112v8.644h-36.13V40.045z"/>
			<path fill="#586B93" d="M161.161,40.045h28.904c8.847,0,12.077,4.49,12.077,11.17c0,5.335-2.53,8.253-5.766,9.149v0.115
				c2.278,0.848,4.049,2.867,4.354,7.186c0.556,7.918,0.754,10.443,2.268,12.465h-13.179c-0.663-1.744-0.711-4.098-0.711-5.948
				c0-6.29-1.877-7.416-4.899-7.416H173.19v13.364h-12.029V40.045z M173.19,57.781h11.569c2.931,0,4.504-1.677,4.504-4.431
				c0-2.64-1.573-4.327-4.504-4.327H173.19V57.781z"/>
			<path fill="#586B93" d="M205.886,40.045h36.125v8.644H217.91v7.245h22.582v8.309H217.91v7.245h24.101v8.644h-36.125V40.045z"/>
			<path fill="#586B93" d="M288.641,64.691c-1.455,8.646-5.76,16.68-22.833,16.68c-15.26,0-22.689-7.472-22.689-21.285
				c0-13.417,7.023-21.28,22.689-21.28c11.018,0,20.105,2.811,22.737,16.677h-13.394c-0.706-2.867-2.471-7.691-9.296-7.691
				c-7.525,0-10.002,5.669-10.002,12.294c0,6.624,2.225,12.293,10.002,12.293c5.402,0,8.644-3.027,9.456-7.688H288.641z"/>
			<path fill="#586B93" d="M321.846,63.346h-18.239v16.785h-12.023V40.045h12.023v14.313h18.239V40.045h12.029v40.086h-12.029
				V63.346z"/>
			<path fill="#586B93" d="M360.698,38.807c12.735,0,23.491,4.659,23.491,21.28c0,16.621-10.756,21.285-23.491,21.285
				s-23.491-4.664-23.491-21.285C337.207,43.465,347.963,38.807,360.698,38.807z M360.698,72.38c6.472,0,10.756-3.867,10.756-12.293
				c0-8.366-4.284-12.294-10.756-12.294c-6.424,0-10.762,3.928-10.762,12.294C349.937,68.513,354.274,72.38,360.698,72.38z"/>
			<path fill="#586B93" d="M412.489,51.777c-0.353-2.755-2.326-4.662-7.825-4.662c-4.043,0-6.269,1.297-6.269,3.937
				c0,1.343,0.855,2.126,2.68,2.468c3.033,0.554,12.275,2.078,15.816,2.744c6.718,1.297,10.756,4.327,10.756,11.401
				c0,13.588-15.858,13.706-20.822,13.706c-12.217,0-21.063-2.423-21.77-13.591h14.249c0.311,3.027,1.818,4.937,8.088,4.937
				c3.027,0,6.311-0.78,6.311-4.204c0-2.137-1.514-2.87-5.712-3.594l-12.023-2.03c-7.425-1.23-10.308-5.384-10.308-11.342
				c0-5.271,2.937-12.74,18.747-12.74c13.089,0,20.973,3.479,21.727,12.971H412.489z"/>
		</g>
		<g>
			<path fill="#9DAAC1" d="M26.385,40.045H40.96c6.236,0,9.601,3.73,9.601,11.195c0,8.822-4.686,11.203-10.483,11.203H26.385V40.045
				z M33.103,57.423h5.622c3.846,0,4.883-3.137,4.883-6.208c0-4.18-1.829-6.153-5.423-6.153h-5.082V57.423z"/>
			<path fill="#9DAAC1" d="M52.422,40.045h20.196v4.83H59.151v4.041h12.617v4.646H59.151v4.049h13.468v4.833H52.422V40.045z"/>
		</g>
		<g>
			<path fill="#586B93" d="M105.738,106.205H87.493v16.779H75.47V82.901h12.023v14.313h18.245V82.901h12.013v40.083h-12.013V106.205
				z"/>
			<path fill="#586B93" d="M122.458,82.901h12.024v23.748c0,6.509,2.733,8.59,8.242,8.59c5.504,0,8.232-2.081,8.232-8.59V82.901
				h12.029v25.93c0,11.066-7.482,15.394-20.261,15.394c-12.789,0-20.266-4.327-20.266-15.394V82.901z"/>
			<path fill="#586B93" d="M167.686,82.901h17.586l8.226,26.438h0.107l8.232-26.438h17.581v40.083h-11.318V93.005h-0.096
				l-9.5,29.979h-9.906l-9.488-29.979h-0.112v29.979h-11.313V82.901z"/>
			<path fill="#586B93" d="M235.24,82.901h14.697l15.517,40.083h-12.885l-2.177-6.51h-15.752l-2.183,6.51h-12.879L235.24,82.901z
				 M242.567,93.005h-0.106l-5.002,15.163h10.104L242.567,93.005z"/>
			<path fill="#586B93" d="M265.609,82.901h13.843l16.725,25.09h0.102v-25.09h11.618v40.083H294.61l-17.276-25.321h-0.107v25.321
				h-11.617V82.901z"/>
			<path fill="#586B93" d="M334.725,81.66c12.73,0,23.492,4.664,23.492,21.282c0,16.624-10.762,21.282-23.492,21.282
				c-12.729,0-23.491-4.658-23.491-21.282C311.233,86.324,321.995,81.66,334.725,81.66z M334.725,115.239
				c6.462,0,10.772-3.873,10.772-12.297c0-8.365-4.311-12.291-10.772-12.291c-6.407,0-10.761,3.926-10.761,12.291
				C323.964,111.366,328.317,115.239,334.725,115.239z"/>
			<path fill="#586B93" d="M386.521,94.631c-0.353-2.749-2.332-4.659-7.836-4.659c-4.038,0-6.269,1.289-6.269,3.926
				c0,1.354,0.861,2.135,2.68,2.472c3.038,0.562,12.291,2.086,15.821,2.754c6.718,1.295,10.762,4.327,10.762,11.398
				c0,13.591-15.864,13.703-20.822,13.703c-12.222,0-21.058-2.417-21.774-13.591h14.249c0.305,3.033,1.818,4.937,8.087,4.937
				c3.027,0,6.316-0.78,6.316-4.204c0-2.139-1.514-2.866-5.718-3.6l-12.013-2.021c-7.435-1.23-10.313-5.386-10.313-11.339
				c0-5.274,2.926-12.746,18.742-12.746c13.083,0,20.967,3.482,21.727,12.971H386.521z"/>
		</g>
		<g>
			<path fill="#9DAAC1" d="M75.512,15.04H90.43c5.477,0,7.435,3.226,7.435,7.464c0,3.696-1.701,7.469-7.129,7.469h-8.499v7.464
				h-6.724V15.04z M82.236,25.323h5.99c1.861,0,2.68-0.84,2.68-2.819c0-1.982-0.818-2.83-2.68-2.83h-5.99V25.323z"/>
			<path fill="#9DAAC1" d="M99.469,15.04h6.718V32.23h10.537v5.207H99.469V15.04z"/>
			<path fill="#9DAAC1" d="M125.699,15.04h8.216l8.675,22.398h-7.194l-1.214-3.643h-8.815l-1.219,3.643h-7.199L125.699,15.04z
				 M129.796,20.685h-0.053l-2.792,8.475h5.643L129.796,20.685z"/>
			<path fill="#9DAAC1" d="M142.687,15.04h7.729l9.344,14.022h0.064V15.04h6.494v22.398h-7.429l-9.655-14.153h-0.053v14.153h-6.493
				V15.04z"/>
			<path fill="#9DAAC1" d="M179.025,15.04h7.734l9.35,14.022h0.053V15.04h6.494v22.398h-7.414l-9.67-14.153h-0.053v14.153h-6.493
				V15.04z"/>
			<path fill="#9DAAC1" d="M211.502,15.04h8.221l8.665,22.398h-7.193l-1.22-3.643h-8.809l-1.214,3.643h-7.199L211.502,15.04z
				 M215.6,20.685h-0.059l-2.787,8.475h5.643L215.6,20.685z"/>
			<path fill="#9DAAC1" d="M252.88,28.81c-0.813,4.83-3.22,9.32-12.772,9.32c-8.521,0-12.672-4.172-12.672-11.896
				c0-7.496,3.932-11.887,12.672-11.887c6.161,0,11.248,1.564,12.719,9.312h-7.488c-0.396-1.597-1.385-4.295-5.199-4.295
				c-4.203,0-5.589,3.172-5.589,6.87c0,3.707,1.246,6.876,5.589,6.876c3.027,0,4.83-1.696,5.285-4.3H252.88z"/>
			<path fill="#9DAAC1" d="M254.602,15.04h6.729v22.398h-6.729V15.04z"/>
			<path fill="#9DAAC1" d="M276.403,14.347c7.119,0,13.136,2.599,13.136,11.887s-6.017,11.896-13.136,11.896
				c-7.114,0-13.126-2.607-13.126-11.896S269.289,14.347,276.403,14.347z M276.403,33.11c3.615,0,6.022-2.167,6.022-6.876
				c0-4.677-2.407-6.87-6.022-6.87c-3.584,0-6.012,2.193-6.012,6.87C270.392,30.944,272.819,33.11,276.403,33.11z"/>
			<path fill="#9DAAC1" d="M291.4,15.04h7.734l9.355,14.022h0.053V15.04h6.499v22.398h-7.424l-9.66-14.153h-0.059v14.153H291.4
				V15.04z"/>
			<path fill="#9DAAC1" d="M323.889,15.04h8.21l8.671,22.398h-7.2l-1.219-3.643h-8.815l-1.208,3.643h-7.194L323.889,15.04z
				 M327.975,20.685h-0.053l-2.803,8.475h5.658L327.975,20.685z"/>
			<path fill="#9DAAC1" d="M340.86,15.04h6.718V32.23h10.542v5.207h-17.26V15.04z"/>
		</g>
	</g>
</g>
</svg>
